# xmcd CD database file
#
# Track frame offsets:
#	182
#	11432
#	25382
#	39557
#	56282
#	71057
#	88757
#	100382
#	116432
#	129557
#	143657
#	162332
#
# Disc length: 2345 seconds
#
# Revision: 0
# Processed by: cddbd v1.5.1PL0 Copyright (c) Steve Scherf et al.
# Submitted via: CDex 1.51
#
DISCID=9d09270c
DTITLE=Nina Nova and Band - What's On Your Mind
DYEAR=1992
DGENRE=Country
TTITLE0=Cry, Cry
TTITLE1=What's On Your Mind
TTITLE2=C'est La Vie
TTITLE3=Don't Believe Her
TTITLE4=Sorry I'm On The Run 
TTITLE5=There Will Be No Chasing Rainbows Anymore
TTITLE6=Short Road The Love
TTITLE7=It's Another Silent Night
TTITLE8=When The Rain Dries All Of The Meadows
TTITLE9=Bye, Bye Amerika
TTITLE10=The Hard Times
TTITLE11=Hallelulja
EXTD=YEAR: 1992
EXTT0=
EXTT1=
EXTT2=
EXTT3=
EXTT4=
EXTT5=
EXTT6=
EXTT7=
EXTT8=
EXTT9=
EXTT10=
EXTT11=
PLAYORDER=
